<svg xmlns="http://www.w3.org/2000/svg" width="403.52" height="462.52" viewBox="-30.52 3.80 403.52 462.52" version="1.1">
	<path d="M 59.715 25.040 C 48.691 26.893, 37.905 33.916, 31.681 43.294 C 24.701 53.811, 25.022 48.198, 24.990 160.298 C 24.975 215.847, 25.106 261.440, 25.282 261.615 C 25.458 261.791, 43.804 243.692, 66.051 221.394 C 106.626 180.726, 112.986 175.122, 124.363 170.020 C 145.439 160.566, 171.389 163.468, 190.500 177.415 L 195.500 181.063 191 180.282 C 181.828 178.688, 164.991 179.432, 156.701 181.796 C 134.654 188.085, 129.432 192.478, 61.111 262.217 C 52.103 271.412, 40.292 282.887, 34.864 287.717 L 24.994 296.500 25.247 355.500 L 25.500 414.500 28.728 421.315 C 34.580 433.671, 46.673 442.905, 59.825 445.059 C 67.556 446.325, 275.697 446.284, 283.449 445.014 C 296.543 442.870, 308.376 433.762, 314.291 421.274 L 317.500 414.500 317.774 337.120 L 318.048 259.741 311.560 267.776 C 301.932 279.701, 282.887 298.206, 271.212 306.979 C 239.462 330.838, 202.985 336.142, 171.307 321.506 C 143.069 308.459, 122.592 278.040, 121.854 248.042 L 121.661 240.226 129.081 232.051 C 135.843 224.600, 148.885 213.551, 149.817 214.484 C 150.028 214.695, 149.263 217.580, 148.116 220.894 C 134.416 260.480, 158.670 300.341, 199.891 305.985 C 238.185 311.228, 276.349 283.883, 317.309 221.853 L 326.343 208.171 333.922 213.905 C 338.090 217.058, 344.087 221.533, 347.250 223.850 L 353 228.063 353 177.089 L 353 126.116 341.250 131.884 C 279.629 162.134, 263.001 170.431, 263.004 170.925 C 263.006 171.241, 269.563 174.804, 277.575 178.843 C 287.901 184.048, 291.986 186.593, 291.606 187.584 C 290.463 190.563, 273.443 215.673, 265.024 226.801 C 248.681 248.405, 234.092 262.194, 221 268.413 C 211.889 272.740, 198.230 272.929, 190.460 268.835 C 162.555 254.131, 168.620 213.624, 199.583 207.900 C 206.367 206.646, 212.928 207.780, 228.381 212.878 L 240 216.711 239.993 214.105 C 239.953 199.173, 227.246 172.823, 214.443 161.122 C 196.281 144.523, 177.389 137.495, 151 137.522 C 118.702 137.555, 104.435 144.596, 72.229 176.400 L 52.959 195.430 53.229 127.638 L 53.500 59.846 57.235 56.423 C 59.527 54.323, 62.039 52.977, 63.735 52.942 C 65.256 52.909, 114.766 52.860, 173.758 52.832 C 292.751 52.775, 283.752 52.266, 288.044 59.304 C 289.876 62.310, 289.993 64.570, 289.996 97.250 C 289.999 120.074, 290.348 132, 291.014 132 C 291.572 132, 297.872 129.072, 305.014 125.493 L 318 118.986 318 89.582 C 318 63.260, 317.796 59.523, 316.054 53.927 C 311.290 38.617, 298.468 27.609, 282.321 24.965 C 275.235 23.804, 66.645 23.875, 59.715 25.040 M 80.348 281.852 L 66.196 296.521 69.505 304.722 C 94.466 366.597, 156.750 411.441, 225.395 416.963 C 241.901 418.290, 275.398 418.295, 280.168 416.970 C 282.225 416.399, 285.189 414.410, 286.918 412.441 L 290 408.930 290 368.442 L 290 327.954 282.750 332.875 C 229.203 369.225, 166.877 364.855, 125.423 321.843 C 112.795 308.739, 103.516 292.766, 98.559 275.596 C 97.287 271.188, 95.853 267.492, 95.373 267.382 C 94.893 267.273, 88.132 273.784, 80.348 281.852 M 53.215 372.229 L 53.500 409.871 56.458 412.958 C 61.149 417.852, 63.584 418.119, 100.500 417.797 L 134.500 417.500 127.500 413.103 C 99.985 395.819, 76.806 372.453, 58.715 343.762 L 52.929 334.587 53.215 372.229" stroke="none" fill="#208AEF" fill-rule="evenodd"/>
</svg>